<!DOCTYPE svg PUBLIC "-//W3C//DTD SVG 1.1//EN" "http://www.w3.org/Graphics/SVG/1.1/DTD/svg11.dtd">
<!-- Uploaded to: SVG Repo, www.svgrepo.com, Transformed by: SVG Repo Mixer Tools -->
<svg fill="#2ecc71" height="64px" width="64px" version="1.1" id="Capa_1" xmlns="http://www.w3.org/2000/svg" xmlns:xlink="http://www.w3.org/1999/xlink" viewBox="-18.29 -18.29 219.51 219.51" xml:space="preserve" stroke="#2ecc71" stroke-width="3.6586200000000004">
<g id="SVGRepo_bgCarrier" stroke-width="0"/>
<g id="SVGRepo_tracerCarrier" stroke-linecap="round" stroke-linejoin="round" stroke="#CCCCCC" stroke-width="5.48793"/>
<g id="SVGRepo_iconCarrier"> <path d="M173.93,92.798c-4.971,0-9,4.029-9,9v50.404L30.728,18h50.404c4.971,0,9-4.029,9-9s-4.029-9-9-9H9C4.03,0,0,4.029,0,9 v72.132c0,4.971,4.029,9,9,9s9-4.029,9-9V30.729l134.202,134.202h-50.404c-4.971,0-9,4.029-9,9s4.029,9,9,9h72.132 c4.971,0,9-4.029,9-9v-72.132C182.93,96.828,178.901,92.798,173.93,92.798z"/> </g>
</svg>