<?xml version="1.0" encoding="UTF-8" standalone="no" ?>
<!DOCTYPE svg PUBLIC "-//W3C//DTD SVG 1.1//EN" "http://www.w3.org/Graphics/SVG/1.1/DTD/svg11.dtd">
<svg xmlns="http://www.w3.org/2000/svg" xmlns:xlink="http://www.w3.org/1999/xlink" version="1.1" width="1080" height="1080" viewBox="0 0 1080 1080" xml:space="preserve">
<desc>Created with Fabric.js 5.2.4</desc>
<defs>
</defs>
<rect x="0" y="0" width="100%" height="100%" fill="transparent"></rect>
<g transform="matrix(1 0 0 1 540 540)" id="11c7ccc8-339f-48fc-9fc5-7394e267057e"  >
<rect style="stroke: none; stroke-width: 1; stroke-dasharray: none; stroke-linecap: butt; stroke-dashoffset: 0; stroke-linejoin: miter; stroke-miterlimit: 4; fill: rgb(255,255,255); fill-rule: nonzero; opacity: 1; visibility: hidden;" vector-effect="non-scaling-stroke"  x="-540" y="-540" rx="0" ry="0" width="1080" height="1080" />
</g>
<g transform="matrix(1 0 0 1 540 540)" id="f24b92a3-41f1-4e3e-ab87-00a5183591e9"  >
</g>
<g transform="matrix(45 0 0 45 225 225)"  >
<path style="stroke: none; stroke-width: 1; stroke-dasharray: none; stroke-linecap: butt; stroke-dashoffset: 0; stroke-linejoin: miter; stroke-miterlimit: 4; fill: rgb(0,0,0); fill-rule: nonzero; opacity: 1;" vector-effect="non-scaling-stroke"  transform=" translate(-5, -5)" d="M 3 8 C 2.4477152501692068 8 2 7.552284749830793 2 7 L 2 4 C 2 2.895430500338413 2.895430500338413 2 4 2 L 7 2 C 7.552284749830793 2 8 2.4477152501692063 8 3 C 8 3.5522847498307932 7.552284749830794 4 7 4 L 4 4 L 4 7 C 4 7.552284749830793 3.5522847498307932 8 3 8 Z" stroke-linecap="round" />
</g>
<g transform="matrix(45 0 0 45 225 855)"  >
<path style="stroke: none; stroke-width: 1; stroke-dasharray: none; stroke-linecap: butt; stroke-dashoffset: 0; stroke-linejoin: miter; stroke-miterlimit: 4; fill: rgb(0,0,0); fill-rule: nonzero; opacity: 1;" vector-effect="non-scaling-stroke"  transform=" translate(-5, -19)" d="M 7 22 L 4 22 C 2.895430500338413 22 2 21.104569499661586 2 20 L 2 17 C 2 16.447715250169207 2.4477152501692068 16 3 16 C 3.5522847498307932 16 4 16.447715250169207 4 17 L 4 20 L 7 20 C 7.552284749830793 20 8 20.447715250169207 8 21 C 8 21.552284749830793 7.552284749830794 22 7 22 Z" stroke-linecap="round" />
</g>
<g transform="matrix(45 0 0 45 855 855)"  >
<path style="stroke: none; stroke-width: 1; stroke-dasharray: none; stroke-linecap: butt; stroke-dashoffset: 0; stroke-linejoin: miter; stroke-miterlimit: 4; fill: rgb(0,0,0); fill-rule: nonzero; opacity: 1;" vector-effect="non-scaling-stroke"  transform=" translate(-19, -19)" d="M 20 22 L 17 22 C 16.447715250169207 22 16 21.552284749830793 16 21 C 16 20.447715250169207 16.447715250169207 20 17 20 L 20 20 L 20 17 C 20 16.447715250169207 20.447715250169207 16 21 16 C 21.552284749830793 16 22 16.447715250169207 22 17 L 22 20 C 22 21.104569499661586 21.104569499661586 22 20 22 Z" stroke-linecap="round" />
</g>
<g transform="matrix(45 0 0 45 540 540)"  >
<path style="stroke: none; stroke-width: 1; stroke-dasharray: none; stroke-linecap: butt; stroke-dashoffset: 0; stroke-linejoin: miter; stroke-miterlimit: 4; fill: rgb(0,0,0); fill-rule: nonzero; opacity: 1;" vector-effect="non-scaling-stroke"  transform=" translate(-12, -12)" d="M 21 13 L 3 13 C 2.4477152501692068 13 2 12.552284749830793 2 12 C 2 11.447715250169207 2.4477152501692068 11 3 11 L 21 11 C 21.552284749830793 11 22 11.447715250169207 22 12 C 22 12.552284749830793 21.552284749830793 13 21 13 Z" stroke-linecap="round" />
</g>
<g transform="matrix(0 0 0 0 0 0)"  >
<g style=""   >
</g>
</g>
<g transform="matrix(45 0 0 45 249.5 249.5)"  >
<path style="stroke: none; stroke-width: 50; stroke-dasharray: none; stroke-linecap: butt; stroke-dashoffset: 0; stroke-linejoin: miter; stroke-miterlimit: 4; fill: rgb(46,204,113); fill-rule: nonzero; opacity: 1;" vector-effect="non-scaling-stroke"  transform=" translate(-5, -5)" d="M 3 8 C 2.4477152501692068 8 2 7.552284749830793 2 7 L 2 4 C 2 2.895430500338413 2.895430500338413 2 4 2 L 7 2 C 7.552284749830793 2 8 2.4477152501692063 8 3 C 8 3.5522847498307932 7.552284749830794 4 7 4 L 4 4 L 4 7 C 4 7.552284749830793 3.5522847498307932 8 3 8 Z" stroke-linecap="round" />
</g>
<g transform="matrix(45 0 0 45 854.5 224.5)"  >
<path style="stroke: none; stroke-width: 0; stroke-dasharray: none; stroke-linecap: butt; stroke-dashoffset: 0; stroke-linejoin: miter; stroke-miterlimit: 4; fill: rgb(46,204,113); fill-rule: nonzero; opacity: 1;" vector-effect="non-scaling-stroke"  transform=" translate(-19, -5)" d="M 21 8 C 20.447715250169207 8 20 7.552284749830793 20 7 L 20 4 L 17 4 C 16.447715250169207 4 16 3.5522847498307932 16 3 C 16 2.4477152501692068 16.447715250169207 2 17 2 L 20 2 C 21.104569499661586 2 22 2.8954305003384126 22 3.9999999999999996 L 22 7 C 22 7.552284749830793 21.552284749830793 8 21 8 Z" stroke-linecap="round" />
</g>
<g transform="matrix(45 0 0 45 225 855)"  >
<path style="stroke: none; stroke-width: 1; stroke-dasharray: none; stroke-linecap: butt; stroke-dashoffset: 0; stroke-linejoin: miter; stroke-miterlimit: 4; fill: rgb(46,204,113); fill-rule: nonzero; opacity: 1;" vector-effect="non-scaling-stroke"  transform=" translate(-5, -19)" d="M 7 22 L 4 22 C 2.895430500338413 22 2 21.104569499661586 2 20 L 2 17 C 2 16.447715250169207 2.4477152501692068 16 3 16 C 3.5522847498307932 16 4 16.447715250169207 4 17 L 4 20 L 7 20 C 7.552284749830793 20 8 20.447715250169207 8 21 C 8 21.552284749830793 7.552284749830794 22 7 22 Z" stroke-linecap="round" />
</g>
<g transform="matrix(45 0 0 45 879.5 879.5)"  >
<path style="stroke: none; stroke-width: 50; stroke-dasharray: none; stroke-linecap: butt; stroke-dashoffset: 0; stroke-linejoin: miter; stroke-miterlimit: 4; fill: rgb(46,204,113); fill-rule: nonzero; opacity: 1;" vector-effect="non-scaling-stroke"  transform=" translate(-19, -19)" d="M 20 22 L 17 22 C 16.447715250169207 22 16 21.552284749830793 16 21 C 16 20.447715250169207 16.447715250169207 20 17 20 L 20 20 L 20 17 C 20 16.447715250169207 20.447715250169207 16 21 16 C 21.552284749830793 16 22 16.447715250169207 22 17 L 22 20 C 22 21.104569499661586 21.104569499661586 22 20 22 Z" stroke-linecap="round" />
</g>
<g transform="matrix(45 0 0 45 564.5 564.5)"  >
<path style="stroke: none; stroke-width: 50; stroke-dasharray: none; stroke-linecap: butt; stroke-dashoffset: 0; stroke-linejoin: miter; stroke-miterlimit: 4; fill: rgb(46,204,113); fill-rule: nonzero; opacity: 1;" vector-effect="non-scaling-stroke"  transform=" translate(-12, -12)" d="M 21 13 L 3 13 C 2.4477152501692068 13 2 12.552284749830793 2 12 C 2 11.447715250169207 2.4477152501692068 11 3 11 L 21 11 C 21.552284749830793 11 22 11.447715250169207 22 12 C 22 12.552284749830793 21.552284749830793 13 21 13 Z" stroke-linecap="round" />
</g>
<g transform="matrix(0 0 0 0 0 0)"  >
<g style=""   >
</g>
</g>
<g transform="matrix(0 0 0 0 0 0)"  >
<g style=""   >
</g>
</g>
<g transform="matrix(0 0 0 0 0 0)"  >
<g style=""   >
</g>
</g>
<g transform="matrix(0 0 0 0 0 0)"  >
<g style=""   >
</g>
</g>
<g transform="matrix(0 0 0 0 0 0)"  >
<g style=""   >
</g>
</g>
<g transform="matrix(36.17 0 0 36.17 741.9 689.17)"  >
<path style="stroke: none; stroke-width: 1; stroke-dasharray: none; stroke-linecap: butt; stroke-dashoffset: 0; stroke-linejoin: miter; stroke-miterlimit: 4; fill: rgb(244,67,138); fill-rule: nonzero; opacity: 1;" vector-effect="non-scaling-stroke"  transform=" translate(-17, -15.6)" d="M 17.91 10.2 L 16.09 10.2 L 12 21 L 13.82 21 L 14.82 18.3 L 19.14 18.3 L 20.14 21 L 22 21 Z M 15.52 16.5 L 17 12.6 L 18.48 16.5 Z" stroke-linecap="round" />
</g>
<g transform="matrix(36.17 0 0 36.17 463.84 511.37)"  >
<path style="stroke: none; stroke-width: 2; stroke-dasharray: none; stroke-linecap: butt; stroke-dashoffset: 0; stroke-linejoin: miter; stroke-miterlimit: 4; fill: rgb(100,110,247); fill-rule: evenodd; opacity: 1;" vector-effect="non-scaling-stroke"  transform=" translate(-9.28, -10.65)" d="M 12.79 14.77 L 10.479999999999999 12.51 L 10.479999999999999 12.51 C 12.034709559753457 10.814406990565459 13.195698352914391 8.796335294218071 13.880000000000003 6.599999999999995 L 16.55 6.6 L 16.55 4.8 L 10.18 4.8 L 10.18 3 L 8.36 3 L 8.36 4.8 L 2 4.8 L 2 6.59 L 12.15 6.59 C 11.523839467429362 8.37396281510496 10.54431044041202 10.013313478377029 9.269999999999994 11.409999999999998 C 8.446450481001708 10.502430711173583 7.740863590381112 9.494449438858442 7.170000000000002 8.409999999999998 L 5.35 8.41 C 6.036792146500317 9.908076269329552 6.950906923566433 11.291054345333642 8.059999999999997 12.509999999999998 L 3.44 17 L 4.73 18.3 L 9.27 13.8 L 12.1 16.6 Z" stroke-linecap="round" />
</g>
</svg>